<svg version="1.0" xmlns="http://www.w3.org/2000/svg"
 width="276.000000pt" height="276.000000pt" viewBox="0 0 276.000000 276.000000"
 preserveAspectRatio="xMidYMid meet">

<g transform="translate(0.000000,276.000000) scale(0.100000,-0.100000)"
fill="#000000" stroke="none">
<path d="M1179 2695 c-159 -23 -377 -102 -503 -183 -98 -63 -211 -159 -285
-243 -139 -157 -214 -286 -275 -478 -163 -505 -13 -1062 379 -1405 155 -135
285 -209 474 -270 383 -124 812 -67 1143 151 145 96 302 256 400 409 157 245
227 590 183 900 -36 255 -144 486 -321 689 -158 180 -350 305 -584 379 -196
63 -410 81 -611 51z m437 -60 c257 -49 475 -165 664 -355 157 -156 248 -306
314 -510 47 -144 60 -232 60 -390 0 -158 -13 -246 -60 -390 -66 -204 -157
-354 -314 -510 -156 -157 -306 -248 -510 -314 -144 -47 -232 -60 -390 -60
-158 0 -246 13 -390 60 -204 66 -354 157 -510 314 -157 156 -248 306 -314 510
-47 144 -60 232 -60 390 0 158 13 246 60 390 66 204 157 354 314 510 156 156
305 248 510 314 91 30 141 40 285 60 55 8 261 -4 341 -19z"/>
<path d="M870 1380 l0 -510 85 0 85 0 2 398 3 398 235 -305 c206 -267 498
-640 520 -664 6 -7 70 38 129 89 6 5 -99 143 -493 651 l-351 453 -107 0 -108
0 0 -510z"/>
<path d="M1740 1705 l0 -185 80 0 80 0 0 78 c0 44 3 127 7 185 l6 107 -86 0
-87 0 0 -185z"/>
</g>
</svg>
