<?xml version="1.0" encoding="UTF-8"?>
<!DOCTYPE svg PUBLIC "-//W3C//DTD SVG 1.1//EN" "http://www.w3.org/Graphics/SVG/1.1/DTD/svg11.dtd">
<svg xmlns="http://www.w3.org/2000/svg" version="1.1" width="225px" height="225px" style="shape-rendering:geometricPrecision; text-rendering:geometricPrecision; image-rendering:optimizeQuality; fill-rule:evenodd; clip-rule:evenodd" xmlns:xlink="http://www.w3.org/1999/xlink">
<g><path style="opacity:1" fill="#5ec5ef" d="M 99.5,-0.5 C 107.833,-0.5 116.167,-0.5 124.5,-0.5C 180.833,9.83333 214.167,43.1667 224.5,99.5C 224.5,107.833 224.5,116.167 224.5,124.5C 214.167,180.833 180.833,214.167 124.5,224.5C 116.167,224.5 107.833,224.5 99.5,224.5C 43.1667,214.167 9.83333,180.833 -0.5,124.5C -0.5,116.167 -0.5,107.833 -0.5,99.5C 9.83333,43.1667 43.1667,9.83333 99.5,-0.5 Z M 105.5,10.5 C 151.444,10.3726 184.611,30.7059 205,71.5C 221.234,115.284 213.068,153.784 180.5,187C 143.707,216.792 104.04,221.125 61.5,200C 23.3949,175.616 6.89489,140.782 12,95.5C 23.5805,45.4826 54.7471,17.1493 105.5,10.5 Z"/></g>
<g><path style="opacity:1" fill="#5bc4ef" d="M 102.5,21.5 C 103.833,21.5 105.167,21.5 106.5,21.5C 106.5,33.5 106.5,45.5 106.5,57.5C 94.8333,57.5 83.1667,57.5 71.5,57.5C 76.8589,41.1462 87.1923,29.1462 102.5,21.5 Z"/></g>
<g><path style="opacity:0.502" fill="#8fd3f3" d="M 118.5,21.5 C 117.505,32.988 117.172,44.6547 117.5,56.5C 117.167,56.5 116.833,56.5 116.5,56.5C 116.168,44.4815 116.501,32.4815 117.5,20.5C 118.107,20.6236 118.44,20.9569 118.5,21.5 Z"/></g>
<g><path style="opacity:1" fill="#56c3ef" d="M 118.5,21.5 C 123.293,22.2294 127.626,24.0627 131.5,27C 140.344,34.6635 147.011,43.8302 151.5,54.5C 140.549,56.4777 129.216,57.1444 117.5,56.5C 117.172,44.6547 117.505,32.988 118.5,21.5 Z"/></g>
<g><path style="opacity:1" fill="#5fc6f0" d="M 60.5,56.5 C 53.6457,56.824 46.979,56.4907 40.5,55.5C 49.7984,43.044 61.6317,33.7107 76,27.5C 69.8717,36.41 64.7051,46.0766 60.5,56.5 Z"/></g>
<g><path style="opacity:1" fill="#63c7f0" d="M 183.5,55.5 C 177.021,56.4907 170.354,56.824 163.5,56.5C 158.809,46.3806 153.642,36.7139 148,27.5C 162.368,33.7107 174.202,43.044 183.5,55.5 Z"/></g>
<g><path style="opacity:0.502" fill="#c5e8f8" d="M 40.5,55.5 C 46.979,56.4907 53.6457,56.824 60.5,56.5C 53.656,57.8188 46.656,57.8188 39.5,56.5C 39.6236,55.8933 39.9569,55.56 40.5,55.5 Z"/></g>
<g><path style="opacity:0.502" fill="#bee5f7" d="M 151.5,54.5 C 152.404,55.209 152.737,56.209 152.5,57.5C 140.322,57.8284 128.322,57.4951 116.5,56.5C 116.833,56.5 117.167,56.5 117.5,56.5C 129.216,57.1444 140.549,56.4777 151.5,54.5 Z"/></g>
<g><path style="opacity:0.502" fill="#c5e8f8" d="M 183.5,55.5 C 184.043,55.56 184.376,55.8933 184.5,56.5C 177.344,57.8188 170.344,57.8188 163.5,56.5C 170.354,56.824 177.021,56.4907 183.5,55.5 Z"/></g>
<g><path style="opacity:0.502" fill="#98d7f4" d="M 156.5,67.5 C 143.5,67.5 130.5,67.5 117.5,67.5C 117.5,80.5 117.5,93.5 117.5,106.5C 116.504,93.3438 116.171,80.0105 116.5,66.5C 130.01,66.1711 143.344,66.5044 156.5,67.5 Z"/></g>
<g><path style="opacity:1" fill="#5ac3ef" d="M 32.5,66.5 C 40.5,66.5 48.5,66.5 56.5,66.5C 53.337,79.6415 51.6703,92.9748 51.5,106.5C 41.1667,106.5 30.8333,106.5 20.5,106.5C 21.4774,92.2365 25.4774,78.9031 32.5,66.5 Z"/></g>
<g><path style="opacity:1" fill="#56c2ef" d="M 67.5,66.5 C 80.5,66.5 93.5,66.5 106.5,66.5C 106.5,79.8333 106.5,93.1667 106.5,106.5C 91.1667,106.5 75.8333,106.5 60.5,106.5C 61.1118,92.8272 63.4452,79.4939 67.5,66.5 Z"/></g>
<g><path style="opacity:1" fill="#53c2ef" d="M 156.5,67.5 C 160.648,80.0457 162.981,93.0457 163.5,106.5C 148.167,106.5 132.833,106.5 117.5,106.5C 117.5,93.5 117.5,80.5 117.5,67.5C 130.5,67.5 143.5,67.5 156.5,67.5 Z"/></g>
<g><path style="opacity:1" fill="#5ac3ef" d="M 167.5,66.5 C 175.752,66.1842 183.919,66.5175 192,67.5C 198.769,79.6391 202.602,92.6391 203.5,106.5C 193.167,106.5 182.833,106.5 172.5,106.5C 172.33,92.9748 170.663,79.6415 167.5,66.5 Z"/></g>
<g><path style="opacity:0.502" fill="#90d5f4" d="M 50.5,117.5 C 40.8333,117.5 31.1667,117.5 21.5,117.5C 21.5,119.167 21.5,120.833 21.5,122.5C 20.5386,120.735 20.2053,118.735 20.5,116.5C 30.6806,116.173 40.6806,116.506 50.5,117.5 Z"/></g>
<g><path style="opacity:0.502" fill="#8fd4f3" d="M 106.5,117.5 C 91.5,117.5 76.5,117.5 61.5,117.5C 61.5,119.833 61.5,122.167 61.5,124.5C 60.5269,122.052 60.1936,119.385 60.5,116.5C 76.0091,116.17 91.3424,116.504 106.5,117.5 Z"/></g>
<g><path style="opacity:0.502" fill="#90d5f4" d="M 173.5,117.5 C 183.319,116.506 193.319,116.173 203.5,116.5C 203.795,118.735 203.461,120.735 202.5,122.5C 202.5,120.833 202.5,119.167 202.5,117.5C 192.833,117.5 183.167,117.5 173.5,117.5 Z"/></g>
<g><path style="opacity:0.502" fill="#97d5f4" d="M 162.5,123.5 C 162.5,121.5 162.5,119.5 162.5,117.5C 147.5,117.5 132.5,117.5 117.5,117.5C 117.5,130.5 117.5,143.5 117.5,156.5C 130.5,156.5 143.5,156.5 156.5,156.5C 143.344,157.496 130.01,157.829 116.5,157.5C 116.5,143.833 116.5,130.167 116.5,116.5C 132.167,116.5 147.833,116.5 163.5,116.5C 163.802,119.059 163.468,121.393 162.5,123.5 Z"/></g>
<g><path style="opacity:1" fill="#5ac3ef" d="M 50.5,117.5 C 51.6424,130.823 53.6424,144.157 56.5,157.5C 48.4931,157.666 40.4931,157.5 32.5,157C 26.1195,146.359 22.4529,134.859 21.5,122.5C 21.5,120.833 21.5,119.167 21.5,117.5C 31.1667,117.5 40.8333,117.5 50.5,117.5 Z"/></g>
<g><path style="opacity:1" fill="#56c2ef" d="M 106.5,117.5 C 106.5,130.833 106.5,144.167 106.5,157.5C 93.4957,157.667 80.4957,157.5 67.5,157C 63.8981,146.489 61.8981,135.655 61.5,124.5C 61.5,122.167 61.5,119.833 61.5,117.5C 76.5,117.5 91.5,117.5 106.5,117.5 Z"/></g>
<g><path style="opacity:1" fill="#53c2ee" d="M 162.5,123.5 C 162.276,134.944 160.276,145.944 156.5,156.5C 143.5,156.5 130.5,156.5 117.5,156.5C 117.5,143.5 117.5,130.5 117.5,117.5C 132.5,117.5 147.5,117.5 162.5,117.5C 162.5,119.5 162.5,121.5 162.5,123.5 Z"/></g>
<g><path style="opacity:1" fill="#5ac3ef" d="M 173.5,117.5 C 183.167,117.5 192.833,117.5 202.5,117.5C 202.5,119.167 202.5,120.833 202.5,122.5C 201.525,134.592 198.025,145.925 192,156.5C 183.919,157.482 175.752,157.816 167.5,157.5C 170.358,144.157 172.358,130.823 173.5,117.5 Z"/></g>
<g><path style="opacity:0.502" fill="#c5e8f8" d="M 60.5,167.5 C 53.6457,167.176 46.979,167.509 40.5,168.5C 39.9569,168.44 39.6236,168.107 39.5,167.5C 46.656,166.181 53.656,166.181 60.5,167.5 Z"/></g>
<g><path style="opacity:0.502" fill="#c5e8f8" d="M 163.5,167.5 C 170.344,166.181 177.344,166.181 184.5,167.5C 184.376,168.107 184.043,168.44 183.5,168.5C 177.021,167.509 170.354,167.176 163.5,167.5 Z"/></g>
<g><path style="opacity:0.502" fill="#a1d9f4" d="M 152.5,167.5 C 140.833,167.5 129.167,167.5 117.5,167.5C 117.172,179.345 117.505,191.012 118.5,202.5C 118.44,203.043 118.107,203.376 117.5,203.5C 116.501,191.185 116.168,178.851 116.5,166.5C 128.678,166.172 140.678,166.505 152.5,167.5 Z"/></g>
<g><path style="opacity:1" fill="#63c7f0" d="M 60.5,167.5 C 64.7051,177.923 69.8717,187.59 76,196.5C 61.6317,190.289 49.7984,180.956 40.5,168.5C 46.979,167.509 53.6457,167.176 60.5,167.5 Z"/></g>
<g><path style="opacity:1" fill="#5cc4ef" d="M 71.5,166.5 C 83.1667,166.5 94.8333,166.5 106.5,166.5C 106.5,178.5 106.5,190.5 106.5,202.5C 98.8448,201.422 92.3448,198.089 87,192.5C 79.9444,184.948 74.7777,176.281 71.5,166.5 Z"/></g>
<g><path style="opacity:1" fill="#57c3ef" d="M 152.5,167.5 C 148.074,179.104 141.074,188.937 131.5,197C 127.626,199.937 123.293,201.771 118.5,202.5C 117.505,191.012 117.172,179.345 117.5,167.5C 129.167,167.5 140.833,167.5 152.5,167.5 Z"/></g>
<g><path style="opacity:1" fill="#62c7f0" d="M 163.5,167.5 C 170.354,167.176 177.021,167.509 183.5,168.5C 174.202,180.956 162.368,190.289 148,196.5C 153.642,187.286 158.809,177.619 163.5,167.5 Z"/></g>
</svg>
