<?xml version="1.0" encoding="UTF-8"?>
<!DOCTYPE svg PUBLIC "-//W3C//DTD SVG 1.1//EN" "http://www.w3.org/Graphics/SVG/1.1/DTD/svg11.dtd">
<svg xmlns="http://www.w3.org/2000/svg" version="1.1" width="493px" height="493px" style="shape-rendering:geometricPrecision; text-rendering:geometricPrecision; image-rendering:optimizeQuality; fill-rule:evenodd; clip-rule:evenodd" xmlns:xlink="http://www.w3.org/1999/xlink">
<g><path style="opacity:0.984" fill="#27cbfb" d="M 225.5,103.5 C 291.782,97.571 346.282,119.904 389,170.5C 418.249,207.344 430.916,249.344 427,296.5C 425.691,298.976 423.858,300.976 421.5,302.5C 427.202,306.764 429.035,312.431 427,319.5C 419.436,339.297 412.436,359.297 406,379.5C 404.939,382.562 403.106,385.062 400.5,387C 389.932,388.619 379.265,388.952 368.5,388C 363.509,384.531 360.676,379.697 360,373.5C 358.513,377.116 357.18,380.783 356,384.5C 354.786,386.049 353.286,387.215 351.5,388C 341.167,388.667 330.833,388.667 320.5,388C 318,386.833 316.167,385 315,382.5C 311.152,371.438 307.152,360.438 303,349.5C 298.768,359.965 295.102,370.632 292,381.5C 290.5,384.333 288.333,386.5 285.5,388C 275.5,388.667 265.5,388.667 255.5,388C 253.376,386.878 251.543,385.378 250,383.5C 249.115,380.274 247.781,377.274 246,374.5C 245.555,380.567 242.722,385.067 237.5,388C 227.5,388.667 217.5,388.667 207.5,388C 203.698,385.913 201.198,382.746 200,378.5C 196.86,368.748 193.527,359.081 190,349.5C 185.66,361.189 181.327,372.856 177,384.5C 175.786,386.049 174.286,387.215 172.5,388C 162.167,388.667 151.833,388.667 141.5,388C 139.714,387.215 138.214,386.049 137,384.5C 135.661,381.119 134.328,377.786 133,374.5C 132.555,380.567 129.722,385.067 124.5,388C 114.167,388.667 103.833,388.667 93.5,388C 91.714,387.215 90.214,386.049 89,384.5C 80.4248,360.774 72.2582,336.94 64.5,313C 64.2944,308.245 66.2944,304.745 70.5,302.5C 68.1421,300.976 66.3088,298.976 65,296.5C 62.4329,220.121 93.9329,162.621 159.5,124C 180.267,112.76 202.267,105.927 225.5,103.5 Z M 189.5,150.5 C 189.783,149.711 190.283,149.044 191,148.5C 191.528,149.816 191.028,150.483 189.5,150.5 Z M 301.5,149.5 C 319.815,156.987 336.149,167.487 350.5,181C 343.167,181.667 335.833,181.667 328.5,181C 320.039,170.039 311.039,159.539 301.5,149.5 Z M 189.5,150.5 C 181.001,160.502 172.668,170.669 164.5,181C 157.167,181.667 149.833,181.667 142.5,181C 155.932,167.403 171.599,157.237 189.5,150.5 Z M 227.5,162.5 C 228.49,168.645 228.823,174.978 228.5,181.5C 222.491,181.666 216.491,181.499 210.5,181C 216.713,175.289 222.38,169.123 227.5,162.5 Z M 264.5,163.5 C 270.685,169.185 276.685,175.019 282.5,181C 276.509,181.499 270.509,181.666 264.5,181.5C 264.5,175.5 264.5,169.5 264.5,163.5 Z M 116.5,215.5 C 125.525,215.168 134.525,215.502 143.5,216.5C 135.445,232.613 130.278,249.613 128,267.5C 118.917,268.485 109.751,268.818 100.5,268.5C 102.315,249.75 107.648,232.083 116.5,215.5 Z M 194.5,215.5 C 205.833,215.5 217.167,215.5 228.5,215.5C 228.5,233.167 228.5,250.833 228.5,268.5C 206.833,268.5 185.167,268.5 163.5,268.5C 167.077,250.337 173.744,233.337 183.5,217.5C 187.313,216.833 190.979,216.166 194.5,215.5 Z M 264.5,215.5 C 279.198,215.197 293.865,215.697 308.5,217C 318.889,232.726 325.556,249.893 328.5,268.5C 307.167,268.5 285.833,268.5 264.5,268.5C 264.5,250.833 264.5,233.167 264.5,215.5 Z M 348.5,216.5 C 357.324,215.343 366.324,215.176 375.5,216C 384.781,232.279 390.448,249.779 392.5,268.5C 383.167,268.5 373.833,268.5 364.5,268.5C 362.799,249.944 357.466,232.611 348.5,216.5 Z M 101.5,303.5 C 106.65,302.349 111.984,302.183 117.5,303C 113.138,305.543 110.638,309.377 110,314.5C 108.673,311.869 107.34,309.202 106,306.5C 104.871,304.859 103.371,303.859 101.5,303.5 Z M 147.5,303.5 C 152.65,302.349 157.984,302.183 163.5,303C 161.714,303.785 160.214,304.951 159,306.5C 158.105,309.583 157.105,312.583 156,315.5C 155.344,309.822 152.511,305.822 147.5,303.5 Z M 213.5,303.5 C 219.653,302.347 225.986,302.18 232.5,303C 226.519,305.444 223.352,309.944 223,316.5C 223.692,309.181 220.525,304.847 213.5,303.5 Z M 259.5,303.5 C 265.653,302.347 271.986,302.18 278.5,303C 273.078,304.924 270.078,308.757 269.5,314.5C 268.224,308.894 264.891,305.227 259.5,303.5 Z M 328.5,303.5 C 333.65,302.349 338.984,302.183 344.5,303C 340.133,305.555 337.633,309.388 337,314.5C 335.673,311.869 334.34,309.202 333,306.5C 331.871,304.859 330.371,303.859 328.5,303.5 Z M 374.5,303.5 C 379.65,302.349 384.984,302.183 390.5,303C 388.714,303.785 387.214,304.951 386,306.5C 385.105,309.583 384.105,312.583 383,315.5C 381.472,312.583 380.139,309.583 379,306.5C 377.871,304.859 376.371,303.859 374.5,303.5 Z"/></g>
<g><path style="opacity:1" fill="#fdfdfd" d="M 228.5,113.5 C 294.175,109.098 347.009,132.764 387,184.5C 408.657,216.998 419.157,252.998 418.5,292.5C 303.833,292.5 189.167,292.5 74.5,292.5C 73.3342,221.988 103.001,168.821 163.5,133C 173.687,128.994 183.853,124.827 194,120.5C 205.39,116.964 216.89,114.631 228.5,113.5 Z M 189.5,150.5 C 191.028,150.483 191.528,149.816 191,148.5C 190.283,149.044 189.783,149.711 189.5,150.5 Z M 301.5,149.5 C 311.039,159.539 320.039,170.039 328.5,181C 335.833,181.667 343.167,181.667 350.5,181C 336.149,167.487 319.815,156.987 301.5,149.5 Z M 189.5,150.5 C 171.599,157.237 155.932,167.403 142.5,181C 149.833,181.667 157.167,181.667 164.5,181C 172.668,170.669 181.001,160.502 189.5,150.5 Z M 227.5,162.5 C 222.38,169.123 216.713,175.289 210.5,181C 216.491,181.499 222.491,181.666 228.5,181.5C 228.823,174.978 228.49,168.645 227.5,162.5 Z M 264.5,163.5 C 264.5,169.5 264.5,175.5 264.5,181.5C 270.509,181.666 276.509,181.499 282.5,181C 276.685,175.019 270.685,169.185 264.5,163.5 Z M 116.5,215.5 C 107.648,232.083 102.315,249.75 100.5,268.5C 109.751,268.818 118.917,268.485 128,267.5C 130.278,249.613 135.445,232.613 143.5,216.5C 134.525,215.502 125.525,215.168 116.5,215.5 Z M 194.5,215.5 C 190.979,216.166 187.313,216.833 183.5,217.5C 173.744,233.337 167.077,250.337 163.5,268.5C 185.167,268.5 206.833,268.5 228.5,268.5C 228.5,250.833 228.5,233.167 228.5,215.5C 217.167,215.5 205.833,215.5 194.5,215.5 Z M 264.5,215.5 C 264.5,233.167 264.5,250.833 264.5,268.5C 285.833,268.5 307.167,268.5 328.5,268.5C 325.556,249.893 318.889,232.726 308.5,217C 293.865,215.697 279.198,215.197 264.5,215.5 Z M 348.5,216.5 C 357.466,232.611 362.799,249.944 364.5,268.5C 373.833,268.5 383.167,268.5 392.5,268.5C 390.448,249.779 384.781,232.279 375.5,216C 366.324,215.176 357.324,215.343 348.5,216.5 Z"/></g>
<g><path style="opacity:1" fill="#95c1cc" d="M 274.5,130.5 C 272.265,130.205 270.265,130.539 268.5,131.5C 267.957,131.44 267.624,131.107 267.5,130.5C 269.973,129.203 272.307,129.203 274.5,130.5 Z"/></g>
<g><path style="opacity:0.985" fill="#13cbfd" d="M 170.5,190.5 C 153.991,190.83 137.658,190.496 121.5,189.5C 144.603,160.704 173.936,141.704 209.5,132.5C 212.781,132.58 215.781,131.913 218.5,130.5C 220.364,129.207 222.364,129.207 224.5,130.5C 204.684,148.977 186.684,168.977 170.5,190.5 Z M 189.5,150.5 C 191.028,150.483 191.528,149.816 191,148.5C 190.283,149.044 189.783,149.711 189.5,150.5 Z M 189.5,150.5 C 171.599,157.237 155.932,167.403 142.5,181C 149.833,181.667 157.167,181.667 164.5,181C 172.668,170.669 181.001,160.502 189.5,150.5 Z"/></g>
<g><path style="opacity:0.986" fill="#1dcafb" d="M 268.5,131.5 C 270.265,130.539 272.265,130.205 274.5,130.5C 312.067,137.87 343.233,156.203 368,185.5C 368.635,186.966 369.469,188.3 370.5,189.5C 370.291,190.086 369.957,190.586 369.5,191C 354.167,191.667 338.833,191.667 323.5,191C 307.14,169.468 288.806,149.634 268.5,131.5 Z M 301.5,149.5 C 311.039,159.539 320.039,170.039 328.5,181C 335.833,181.667 343.167,181.667 350.5,181C 336.149,167.487 319.815,156.987 301.5,149.5 Z"/></g>
<g><path style="opacity:1" fill="#6dc0dc" d="M 218.5,130.5 C 215.781,131.913 212.781,132.58 209.5,132.5C 212.171,130.882 215.171,130.215 218.5,130.5 Z"/></g>
<g><path style="opacity:0.995" fill="#04cbfe" d="M 236.5,141.5 C 237.496,157.658 237.83,173.991 237.5,190.5C 221.833,190.5 206.167,190.5 190.5,190.5C 203.768,172.357 219.101,156.024 236.5,141.5 Z M 227.5,162.5 C 222.38,169.123 216.713,175.289 210.5,181C 216.491,181.499 222.491,181.666 228.5,181.5C 228.823,174.978 228.49,168.645 227.5,162.5 Z"/></g>
<g><path style="opacity:0.99" fill="#05cbfe" d="M 254.5,140.5 C 272.031,155.531 288.031,172.031 302.5,190C 301.906,190.464 301.239,190.631 300.5,190.5C 285.167,190.5 269.833,190.5 254.5,190.5C 254.5,173.833 254.5,157.167 254.5,140.5 Z M 264.5,163.5 C 264.5,169.5 264.5,175.5 264.5,181.5C 270.509,181.666 276.509,181.499 282.5,181C 276.685,175.019 270.685,169.185 264.5,163.5 Z"/></g>
<g><path style="opacity:1" fill="#80bdcd" d="M 236.5,141.5 C 236.56,140.957 236.893,140.624 237.5,140.5C 238.499,157.487 238.833,174.487 238.5,191.5C 222.325,191.83 206.325,191.496 190.5,190.5C 206.167,190.5 221.833,190.5 237.5,190.5C 237.83,173.991 237.496,157.658 236.5,141.5 Z"/></g>
<g><path style="opacity:1" fill="#84c7d8" d="M 121.5,189.5 C 137.658,190.496 153.991,190.83 170.5,190.5C 153.995,191.827 137.329,191.827 120.5,190.5C 120.624,189.893 120.957,189.56 121.5,189.5 Z"/></g>
<g><path style="opacity:1" fill="#82b6c4" d="M 254.5,140.5 C 254.5,157.167 254.5,173.833 254.5,190.5C 269.833,190.5 285.167,190.5 300.5,190.5C 285.009,191.496 269.342,191.83 253.5,191.5C 253.17,174.325 253.503,157.325 254.5,140.5 Z"/></g>
<g><path style="opacity:1" fill="#83aab3" d="M 382.5,206.5 C 365.991,206.17 349.658,206.504 333.5,207.5C 332.957,207.44 332.624,207.107 332.5,206.5C 349.329,205.173 365.995,205.173 382.5,206.5 Z"/></g>
<g><path style="opacity:0.984" fill="#25cafb" d="M 137.5,273.5 C 136.566,274.568 136.232,275.901 136.5,277.5C 121.167,277.5 105.833,277.5 90.5,277.5C 89.953,251.534 96.953,227.701 111.5,206C 127.167,205.333 142.833,205.333 158.5,206C 158.957,206.414 159.291,206.914 159.5,207.5C 147.877,227.962 140.543,249.962 137.5,273.5 Z M 116.5,215.5 C 107.648,232.083 102.315,249.75 100.5,268.5C 109.751,268.818 118.917,268.485 128,267.5C 130.278,249.613 135.445,232.613 143.5,216.5C 134.525,215.502 125.525,215.168 116.5,215.5 Z"/></g>
<g><path style="opacity:0.992" fill="#20cafb" d="M 180.5,206.5 C 199.5,206.5 218.5,206.5 237.5,206.5C 237.5,230.167 237.5,253.833 237.5,277.5C 209.431,278.832 181.264,278.832 153,277.5C 152.937,266.094 154.937,255.094 159,244.5C 164.109,232.108 170.109,220.108 177,208.5C 177.816,207.177 178.983,206.511 180.5,206.5 Z M 194.5,215.5 C 190.979,216.166 187.313,216.833 183.5,217.5C 173.744,233.337 167.077,250.337 163.5,268.5C 185.167,268.5 206.833,268.5 228.5,268.5C 228.5,250.833 228.5,233.167 228.5,215.5C 217.167,215.5 205.833,215.5 194.5,215.5 Z"/></g>
<g><path style="opacity:1" fill="#81c7d9" d="M 180.5,206.5 C 199.659,205.503 218.993,205.17 238.5,205.5C 238.831,229.672 238.498,253.672 237.5,277.5C 237.5,253.833 237.5,230.167 237.5,206.5C 218.5,206.5 199.5,206.5 180.5,206.5 Z"/></g>
<g><path style="opacity:1" fill="#80a4ad" d="M 313.5,206.5 C 293.833,206.5 274.167,206.5 254.5,206.5C 254.5,230.167 254.5,253.833 254.5,277.5C 282.833,277.5 311.167,277.5 339.5,277.5C 339.5,275.167 339.5,272.833 339.5,270.5C 340.473,272.948 340.806,275.615 340.5,278.5C 311.5,278.5 282.5,278.5 253.5,278.5C 253.5,254.167 253.5,229.833 253.5,205.5C 273.674,205.17 293.674,205.503 313.5,206.5 Z"/></g>
<g><path style="opacity:0.987" fill="#0ecbfd" d="M 313.5,206.5 C 323.007,220.535 330.507,235.535 336,251.5C 337.876,257.714 339.043,264.048 339.5,270.5C 339.5,272.833 339.5,275.167 339.5,277.5C 311.167,277.5 282.833,277.5 254.5,277.5C 254.5,253.833 254.5,230.167 254.5,206.5C 274.167,206.5 293.833,206.5 313.5,206.5 Z M 264.5,215.5 C 264.5,233.167 264.5,250.833 264.5,268.5C 285.833,268.5 307.167,268.5 328.5,268.5C 325.556,249.893 318.889,232.726 308.5,217C 293.865,215.697 279.198,215.197 264.5,215.5 Z"/></g>
<g><path style="opacity:0.987" fill="#1dcbfc" d="M 382.5,206.5 C 393.81,224.996 400.477,245.329 402.5,267.5C 402.5,270.833 402.5,274.167 402.5,277.5C 386.833,277.5 371.167,277.5 355.5,277.5C 353.098,252.544 345.765,229.211 333.5,207.5C 349.658,206.504 365.991,206.17 382.5,206.5 Z M 348.5,216.5 C 357.466,232.611 362.799,249.944 364.5,268.5C 373.833,268.5 383.167,268.5 392.5,268.5C 390.448,249.779 384.781,232.279 375.5,216C 366.324,215.176 357.324,215.343 348.5,216.5 Z"/></g>
<g><path style="opacity:1" fill="#81acb7" d="M 137.5,273.5 C 137.5,275.167 137.5,276.833 137.5,278.5C 121.658,278.83 105.991,278.496 90.5,277.5C 105.833,277.5 121.167,277.5 136.5,277.5C 136.232,275.901 136.566,274.568 137.5,273.5 Z"/></g>
<g><path style="opacity:1" fill="#82adb8" d="M 402.5,267.5 C 403.482,270.962 403.815,274.629 403.5,278.5C 387.325,278.83 371.325,278.496 355.5,277.5C 371.167,277.5 386.833,277.5 402.5,277.5C 402.5,274.167 402.5,270.833 402.5,267.5 Z"/></g>
<g><path style="opacity:1" fill="#7fafbc" d="M 74.5,312.5 C 78.3188,311.834 82.3188,311.501 86.5,311.5C 90.893,311.509 94.893,312.176 98.5,313.5C 90.5856,312.533 82.5856,312.199 74.5,312.5 Z"/></g>
<g><path style="opacity:1" fill="#7fb4c1" d="M 211.5,312.5 C 196.755,312.184 182.088,312.517 167.5,313.5C 174.468,312.169 181.802,311.503 189.5,311.5C 197.008,311.5 204.341,311.834 211.5,312.5 Z"/></g>
<g><path style="opacity:1" fill="#fefefe" d="M 74.5,312.5 C 82.5856,312.199 90.5856,312.533 98.5,313.5C 100.428,324.109 103.094,334.443 106.5,344.5C 106.248,347.32 106.748,349.986 108,352.5C 109.883,351.347 110.716,349.681 110.5,347.5C 114.907,336.217 118.24,324.551 120.5,312.5C 128.5,312.5 136.5,312.5 144.5,312.5C 147.388,323.39 150.888,334.056 155,344.5C 155.497,346.81 155.663,349.143 155.5,351.5C 156.833,351.5 158.167,351.5 159.5,351.5C 161.949,338.813 164.616,326.146 167.5,313.5C 182.088,312.517 196.755,312.184 211.5,312.5C 211.595,314.786 212.262,316.786 213.5,318.5C 215.267,329.858 218.1,340.858 222,351.5C 224.863,345.763 227.197,339.763 229,333.5C 230.55,326.387 232.383,319.387 234.5,312.5C 242.42,312.185 250.253,312.518 258,313.5C 261.361,325.747 265.195,337.747 269.5,349.5C 269.281,350.675 269.614,351.675 270.5,352.5C 271.298,352.043 271.631,351.376 271.5,350.5C 275.305,338.071 278.305,325.404 280.5,312.5C 295.5,312.5 310.5,312.5 325.5,312.5C 328.268,325.652 331.268,338.652 334.5,351.5C 334.56,352.043 334.893,352.376 335.5,352.5C 336.386,351.675 336.719,350.675 336.5,349.5C 341.263,337.437 344.93,325.104 347.5,312.5C 355.5,312.5 363.5,312.5 371.5,312.5C 374.893,325.423 378.893,338.089 383.5,350.5C 383.56,351.043 383.893,351.376 384.5,351.5C 385.386,350.675 385.719,349.675 385.5,348.5C 388.501,336.498 391.501,324.498 394.5,312.5C 402.528,312.169 410.528,312.502 418.5,313.5C 411.059,333.911 403.559,354.244 396,374.5C 395.506,376.134 395.34,377.801 395.5,379.5C 387.833,379.5 380.167,379.5 372.5,379.5C 368.566,368.021 365.066,356.354 362,344.5C 361.632,343.09 360.799,342.09 359.5,341.5C 354.51,353.805 350.51,366.471 347.5,379.5C 339.833,379.5 332.167,379.5 324.5,379.5C 317.586,359.544 310.586,339.544 303.5,319.5C 302.667,320.5 301.833,321.5 301,322.5C 294.034,341.373 287.534,360.373 281.5,379.5C 274.167,379.5 266.833,379.5 259.5,379.5C 256.181,369.227 253.014,358.894 250,348.5C 248.985,345.79 247.485,343.457 245.5,341.5C 240.906,353.874 237.239,366.54 234.5,379.5C 226.58,379.815 218.747,379.482 211,378.5C 205.843,363.532 200.843,348.532 196,333.5C 193.816,329.132 191.65,324.799 189.5,320.5C 181.722,339.496 174.722,358.829 168.5,378.5C 160.862,379.497 153.196,379.831 145.5,379.5C 142.184,367.404 138.684,355.404 135,343.5C 134.311,342.643 133.478,341.977 132.5,341.5C 127.596,353.753 123.596,366.419 120.5,379.5C 112.833,379.5 105.167,379.5 97.5,379.5C 90.284,356.948 82.6173,334.615 74.5,312.5 Z"/></g>
<g><path style="opacity:1" fill="#68bcd9" d="M 211.5,312.5 C 213.28,313.99 213.946,315.99 213.5,318.5C 212.262,316.786 211.595,314.786 211.5,312.5 Z"/></g>
<g><path style="opacity:1" fill="#70bcd6" d="M 106.5,344.5 C 107.181,346.158 108.015,347.825 109,349.5C 109.278,348.584 109.778,347.918 110.5,347.5C 110.716,349.681 109.883,351.347 108,352.5C 106.748,349.986 106.248,347.32 106.5,344.5 Z"/></g>
<g><path style="opacity:1" fill="#8fd1e2" d="M 385.5,348.5 C 385.719,349.675 385.386,350.675 384.5,351.5C 383.893,351.376 383.56,351.043 383.5,350.5C 384.167,349.833 384.833,349.167 385.5,348.5 Z"/></g>
<g><path style="opacity:1" fill="#80c4d5" d="M 269.5,349.5 C 270.167,349.833 270.833,350.167 271.5,350.5C 271.631,351.376 271.298,352.043 270.5,352.5C 269.614,351.675 269.281,350.675 269.5,349.5 Z"/></g>
<g><path style="opacity:1" fill="#80c3d4" d="M 336.5,349.5 C 336.719,350.675 336.386,351.675 335.5,352.5C 334.893,352.376 334.56,352.043 334.5,351.5C 335.167,350.833 335.833,350.167 336.5,349.5 Z"/></g>
</svg>
