<?xml version="1.0" encoding="UTF-8"?>
<!DOCTYPE svg PUBLIC "-//W3C//DTD SVG 1.1//EN" "http://www.w3.org/Graphics/SVG/1.1/DTD/svg11.dtd">
<svg xmlns="http://www.w3.org/2000/svg" version="1.1" width="493px" height="493px" style="shape-rendering:geometricPrecision; text-rendering:geometricPrecision; image-rendering:optimizeQuality; fill-rule:evenodd; clip-rule:evenodd" xmlns:xlink="http://www.w3.org/1999/xlink">
<g><path style="opacity:0.943" fill="#23ccfc" d="M -0.5,303.5 C -0.5,288.833 -0.5,274.167 -0.5,259.5C 4.27519,226.007 14.7752,194.341 31,164.5C 55.4791,123.692 88.8124,92.0252 131,69.5C 144.733,63.2107 158.566,57.3773 172.5,52C 187.353,48.4291 202.353,45.7624 217.5,44C 234.833,43.3333 252.167,43.3333 269.5,44C 345.919,52.6754 405.919,88.1754 449.5,150.5C 457.666,164.186 465.166,178.186 472,192.5C 471.865,195.973 473.031,198.806 475.5,201C 480.919,217.475 485.086,234.308 488,251.5C 488.667,268.833 488.667,286.167 488,303.5C 487.49,306.005 485.99,307.505 483.5,308C 323.833,308.667 164.167,308.667 4.5,308C 2.63834,306.634 0.971672,305.134 -0.5,303.5 Z M 179.5,94.5 C 181.942,94.1192 182.609,94.7859 181.5,96.5C 180.335,97.5836 179.002,98.4169 177.5,99C 161.919,114.589 147.585,131.422 134.5,149.5C 121.167,150.833 107.833,150.833 94.5,149.5C 107.246,137.417 120.579,126.083 134.5,115.5C 149.169,107.594 164.169,100.594 179.5,94.5 Z M 306.5,94.5 C 312.828,95.9343 318.995,97.9343 325,100.5C 351.797,112.164 374.963,128.664 394.5,150C 381.154,150.833 367.821,150.666 354.5,149.5C 340.095,129.629 324.095,111.296 306.5,94.5 Z M 222.5,113.5 C 223.495,125.655 223.829,137.989 223.5,150.5C 211.829,150.667 200.162,150.5 188.5,150C 192.675,144.662 197.008,139.495 201.5,134.5C 208.743,127.618 215.743,120.618 222.5,113.5 Z M 265.5,113.5 C 277.924,124.922 289.591,136.922 300.5,149.5C 288.852,150.499 277.186,150.832 265.5,150.5C 265.5,138.167 265.5,125.833 265.5,113.5 Z M 66.5,189.5 C 81.1818,189.167 95.8485,189.501 110.5,190.5C 106.186,198.736 102.02,207.07 98,215.5C 94.3838,226.013 91.3838,236.679 89,247.5C 87.3505,254.674 86.1838,262.008 85.5,269.5C 70.5,269.5 55.5,269.5 40.5,269.5C 43.0107,248.457 48.1774,228.123 56,208.5C 58.8059,201.716 62.3059,195.383 66.5,189.5 Z M 172.5,189.5 C 189.5,189.5 206.5,189.5 223.5,189.5C 223.5,216.167 223.5,242.833 223.5,269.5C 191.5,269.5 159.5,269.5 127.5,269.5C 127.18,266.102 127.513,262.768 128.5,259.5C 130.715,251.83 132.882,244.163 135,236.5C 141.184,220.909 148.684,206.076 157.5,192C 162.933,192.118 167.933,191.285 172.5,189.5 Z M 265.5,189.5 C 282.503,189.333 299.503,189.5 316.5,190C 321.708,191.164 327.041,191.997 332.5,192.5C 344.295,212.397 353.462,233.397 360,255.5C 360.538,260.171 361.038,264.838 361.5,269.5C 329.5,269.5 297.5,269.5 265.5,269.5C 265.5,242.833 265.5,216.167 265.5,189.5 Z M 379.5,189.5 C 394.182,189.167 408.848,189.501 423.5,190.5C 426.342,194.181 428.675,198.181 430.5,202.5C 434.957,211.811 438.623,221.477 441.5,231.5C 444.881,243.632 447.548,255.965 449.5,268.5C 433.848,269.499 418.181,269.833 402.5,269.5C 402.666,265.154 402.499,260.821 402,256.5C 399.299,244.364 396.299,232.364 393,220.5C 388.511,210.186 384.011,199.852 379.5,189.5 Z"/></g>
<g><path style="opacity:1" fill="#fdfefe" d="M 227.5,52.5 C 265.937,50.9143 302.937,57.2476 338.5,71.5C 348.741,76.814 359.074,81.9806 369.5,87C 372.652,90.7977 376.652,93.4643 381.5,95C 385.952,99.3559 390.952,102.856 396.5,105.5C 396.5,106.5 396.5,107.5 396.5,108.5C 397.552,108.351 398.552,108.517 399.5,109C 404.982,113.495 410.149,118.328 415,123.5C 415.483,124.448 415.649,125.448 415.5,126.5C 416.552,126.351 417.552,126.517 418.5,127C 461.764,175.295 482.43,232.461 480.5,298.5C 323.167,298.5 165.833,298.5 8.5,298.5C 7.18787,223.46 33.8545,160.626 88.5,110C 100.498,100.006 113.164,91.0063 126.5,83C 128.134,82.5065 129.801,82.3398 131.5,82.5C 131.33,81.1779 131.663,80.0113 132.5,79C 144.163,74.0458 155.997,69.2124 168,64.5C 177.35,61.454 186.85,58.954 196.5,57C 207.18,56.2116 217.513,54.7116 227.5,52.5 Z M 179.5,94.5 C 164.169,100.594 149.169,107.594 134.5,115.5C 120.579,126.083 107.246,137.417 94.5,149.5C 107.833,150.833 121.167,150.833 134.5,149.5C 147.585,131.422 161.919,114.589 177.5,99C 179.002,98.4169 180.335,97.5836 181.5,96.5C 182.609,94.7859 181.942,94.1192 179.5,94.5 Z M 306.5,94.5 C 324.095,111.296 340.095,129.629 354.5,149.5C 367.821,150.666 381.154,150.833 394.5,150C 374.963,128.664 351.797,112.164 325,100.5C 318.995,97.9343 312.828,95.9343 306.5,94.5 Z M 222.5,113.5 C 215.743,120.618 208.743,127.618 201.5,134.5C 197.008,139.495 192.675,144.662 188.5,150C 200.162,150.5 211.829,150.667 223.5,150.5C 223.829,137.989 223.495,125.655 222.5,113.5 Z M 265.5,113.5 C 265.5,125.833 265.5,138.167 265.5,150.5C 277.186,150.832 288.852,150.499 300.5,149.5C 289.591,136.922 277.924,124.922 265.5,113.5 Z M 66.5,189.5 C 62.3059,195.383 58.8059,201.716 56,208.5C 48.1774,228.123 43.0107,248.457 40.5,269.5C 55.5,269.5 70.5,269.5 85.5,269.5C 86.1838,262.008 87.3505,254.674 89,247.5C 91.3838,236.679 94.3838,226.013 98,215.5C 102.02,207.07 106.186,198.736 110.5,190.5C 95.8485,189.501 81.1818,189.167 66.5,189.5 Z M 172.5,189.5 C 167.933,191.285 162.933,192.118 157.5,192C 148.684,206.076 141.184,220.909 135,236.5C 132.882,244.163 130.715,251.83 128.5,259.5C 127.513,262.768 127.18,266.102 127.5,269.5C 159.5,269.5 191.5,269.5 223.5,269.5C 223.5,242.833 223.5,216.167 223.5,189.5C 206.5,189.5 189.5,189.5 172.5,189.5 Z M 265.5,189.5 C 265.5,216.167 265.5,242.833 265.5,269.5C 297.5,269.5 329.5,269.5 361.5,269.5C 361.038,264.838 360.538,260.171 360,255.5C 353.462,233.397 344.295,212.397 332.5,192.5C 327.041,191.997 321.708,191.164 316.5,190C 299.503,189.5 282.503,189.333 265.5,189.5 Z M 379.5,189.5 C 384.011,199.852 388.511,210.186 393,220.5C 396.299,232.364 399.299,244.364 402,256.5C 402.499,260.821 402.666,265.154 402.5,269.5C 418.181,269.833 433.848,269.499 449.5,268.5C 447.548,255.965 444.881,243.632 441.5,231.5C 438.623,221.477 434.957,211.811 430.5,202.5C 428.675,198.181 426.342,194.181 423.5,190.5C 408.848,189.501 394.182,189.167 379.5,189.5 Z"/></g>
<g><path style="opacity:0.945" fill="#17ccfd" d="M 139.5,159.5 C 117.474,160.156 95.8076,159.489 74.5,157.5C 82.7067,147.952 91.3734,138.618 100.5,129.5C 103.444,127.211 106.444,125.211 109.5,123.5C 109.5,122.5 109.5,121.5 109.5,120.5C 112.588,120.803 114.254,119.47 114.5,116.5C 116.308,116.509 117.975,116.009 119.5,115C 142.198,98.4084 167.365,86.5751 195,79.5C 201.433,77.8431 207.933,77.0097 214.5,77C 186.522,101.43 161.522,128.93 139.5,159.5 Z M 179.5,94.5 C 164.169,100.594 149.169,107.594 134.5,115.5C 120.579,126.083 107.246,137.417 94.5,149.5C 107.833,150.833 121.167,150.833 134.5,149.5C 147.585,131.422 161.919,114.589 177.5,99C 179.002,98.4169 180.335,97.5836 181.5,96.5C 182.609,94.7859 181.942,94.1192 179.5,94.5 Z"/></g>
<g><path style="opacity:0.947" fill="#1ccdfd" d="M 274.5,76.5 C 285.051,77.443 295.384,79.443 305.5,82.5C 349.223,96.9111 385.557,121.911 414.5,157.5C 413.624,158.251 412.624,158.751 411.5,159C 390.47,159.902 369.47,159.569 348.5,158C 339.398,144.901 329.565,132.401 319,120.5C 304.271,105.603 289.437,90.9366 274.5,76.5 Z M 306.5,94.5 C 324.095,111.296 340.095,129.629 354.5,149.5C 367.821,150.666 381.154,150.833 394.5,150C 374.963,128.664 351.797,112.164 325,100.5C 318.995,97.9343 312.828,95.9343 306.5,94.5 Z"/></g>
<g><path style="opacity:1" fill="#53c4e7" d="M 258.5,93.5 C 257.503,114.994 257.169,136.66 257.5,158.5C 272.676,158.171 287.676,158.504 302.5,159.5C 287.098,160.83 271.598,160.83 256,159.5C 255.167,136.493 255.334,113.493 256.5,90.5C 257.425,91.3569 258.092,92.3569 258.5,93.5 Z"/></g>
<g><path style="opacity:0.947" fill="#26ccfc" d="M 229.5,92.5 C 230.5,92.5 231.5,92.5 232.5,92.5C 233.708,114.729 233.708,136.895 232.5,159C 211.129,159.93 189.796,159.597 168.5,158C 178.302,146.27 188.468,134.77 199,123.5C 199.483,122.552 199.649,121.552 199.5,120.5C 202.5,120.833 203.833,119.5 203.5,116.5C 206.5,116.833 207.833,115.5 207.5,112.5C 208.5,112.5 209.5,112.5 210.5,112.5C 210.5,111.5 210.5,110.5 210.5,109.5C 213.5,109.833 214.833,108.5 214.5,105.5C 215.552,105.649 216.552,105.483 217.5,105C 219.208,102.957 221.208,101.29 223.5,100C 226.118,97.8943 228.118,95.3943 229.5,92.5 Z M 222.5,113.5 C 215.743,120.618 208.743,127.618 201.5,134.5C 197.008,139.495 192.675,144.662 188.5,150C 200.162,150.5 211.829,150.667 223.5,150.5C 223.829,137.989 223.495,125.655 222.5,113.5 Z"/></g>
<g><path style="opacity:0.966" fill="#11ccfe" d="M 258.5,93.5 C 267.223,101.231 275.89,108.897 284.5,116.5C 288.518,121.17 292.518,125.836 296.5,130.5C 297.325,131.386 298.325,131.719 299.5,131.5C 299.351,132.552 299.517,133.552 300,134.5C 307.036,142.033 313.87,149.7 320.5,157.5C 319.975,158.192 319.308,158.692 318.5,159C 313.177,159.499 307.844,159.666 302.5,159.5C 287.676,158.504 272.676,158.171 257.5,158.5C 257.169,136.66 257.503,114.994 258.5,93.5 Z M 265.5,113.5 C 265.5,125.833 265.5,138.167 265.5,150.5C 277.186,150.832 288.852,150.499 300.5,149.5C 289.591,136.922 277.924,124.922 265.5,113.5 Z"/></g>
<g><path style="opacity:1" fill="#82c3d3" d="M 74.5,157.5 C 95.8076,159.489 117.474,160.156 139.5,159.5C 117.673,160.497 95.673,160.831 73.5,160.5C 73.2627,159.209 73.596,158.209 74.5,157.5 Z"/></g>
<g><path style="opacity:1" fill="#83c9da" d="M 59.5,181.5 C 81.337,180.172 103.337,180.172 125.5,181.5C 125.376,182.107 125.043,182.44 124.5,182.5C 103.006,181.503 81.3398,181.169 59.5,181.5 Z"/></g>
<g><path style="opacity:0.947" fill="#23cefd" d="M 59.5,181.5 C 81.3398,181.169 103.006,181.503 124.5,182.5C 118.139,194.557 112.305,206.891 107,219.5C 104.131,228.185 101.631,237.018 99.5,246C 97.9421,256.178 96.4421,266.345 95,276.5C 73.5755,277.494 52.0755,277.827 30.5,277.5C 31.7676,252.662 36.9342,228.662 46,205.5C 50.0034,197.093 54.5034,189.093 59.5,181.5 Z M 66.5,189.5 C 62.3059,195.383 58.8059,201.716 56,208.5C 48.1774,228.123 43.0107,248.457 40.5,269.5C 55.5,269.5 70.5,269.5 85.5,269.5C 86.1838,262.008 87.3505,254.674 89,247.5C 91.3838,236.679 94.3838,226.013 98,215.5C 102.02,207.07 106.186,198.736 110.5,190.5C 95.8485,189.501 81.1818,189.167 66.5,189.5 Z"/></g>
<g><path style="opacity:0.947" fill="#1bccfd" d="M 232.5,181.5 C 232.5,213.167 232.5,244.833 232.5,276.5C 194.167,276.5 155.833,276.5 117.5,276.5C 117.5,275.167 117.5,273.833 117.5,272.5C 118.656,256.394 122.322,240.894 128.5,226C 132.53,217.317 136.53,208.65 140.5,200C 143.94,194.052 147.607,188.219 151.5,182.5C 153.766,181.686 156.1,181.186 158.5,181C 183.337,180.17 208.003,180.337 232.5,181.5 Z M 172.5,189.5 C 167.933,191.285 162.933,192.118 157.5,192C 148.684,206.076 141.184,220.909 135,236.5C 132.882,244.163 130.715,251.83 128.5,259.5C 127.513,262.768 127.18,266.102 127.5,269.5C 159.5,269.5 191.5,269.5 223.5,269.5C 223.5,242.833 223.5,216.167 223.5,189.5C 206.5,189.5 189.5,189.5 172.5,189.5 Z"/></g>
<g><path style="opacity:0.967" fill="#1cccfd" d="M 371.5,269.5 C 371.5,271.833 371.5,274.167 371.5,276.5C 333.167,276.5 294.833,276.5 256.5,276.5C 256.5,244.833 256.5,213.167 256.5,181.5C 280.997,180.337 305.663,180.17 330.5,181C 332.9,181.186 335.234,181.686 337.5,182.5C 355.898,208.688 367.232,237.688 371.5,269.5 Z M 265.5,189.5 C 265.5,216.167 265.5,242.833 265.5,269.5C 297.5,269.5 329.5,269.5 361.5,269.5C 361.038,264.838 360.538,260.171 360,255.5C 353.462,233.397 344.295,212.397 332.5,192.5C 327.041,191.997 321.708,191.164 316.5,190C 299.503,189.5 282.503,189.333 265.5,189.5 Z"/></g>
<g><path style="opacity:0.946" fill="#29cdfd" d="M 364.5,180.5 C 386.177,180.167 407.844,180.5 429.5,181.5C 448.341,210.57 458.008,242.57 458.5,277.5C 437.121,277.822 415.788,277.489 394.5,276.5C 393.033,269.074 392.033,261.574 391.5,254C 388.526,243.214 385.693,232.381 383,221.5C 376.667,207.688 370.5,194.021 364.5,180.5 Z M 379.5,189.5 C 384.011,199.852 388.511,210.186 393,220.5C 396.299,232.364 399.299,244.364 402,256.5C 402.499,260.821 402.666,265.154 402.5,269.5C 418.181,269.833 433.848,269.499 449.5,268.5C 447.548,255.965 444.881,243.632 441.5,231.5C 438.623,221.477 434.957,211.811 430.5,202.5C 428.675,198.181 426.342,194.181 423.5,190.5C 408.848,189.501 394.182,189.167 379.5,189.5 Z"/></g>
<g><path style="opacity:1" fill="#81e1f9" d="M 232.5,181.5 C 233.498,213.329 233.832,245.329 233.5,277.5C 194.5,277.5 155.5,277.5 116.5,277.5C 116.216,275.585 116.549,273.919 117.5,272.5C 117.5,273.833 117.5,275.167 117.5,276.5C 155.833,276.5 194.167,276.5 232.5,276.5C 232.5,244.833 232.5,213.167 232.5,181.5 Z"/></g>
<g><path style="opacity:1" fill="#81def6" d="M 256.5,181.5 C 256.5,213.167 256.5,244.833 256.5,276.5C 294.833,276.5 333.167,276.5 371.5,276.5C 371.5,274.167 371.5,271.833 371.5,269.5C 372.473,271.948 372.806,274.615 372.5,277.5C 333.5,277.5 294.5,277.5 255.5,277.5C 255.168,245.329 255.502,213.329 256.5,181.5 Z"/></g>
<g><path style="opacity:0.924" fill="#28cdfd" d="M -0.5,331.5 C -0.5,328.167 -0.5,324.833 -0.5,321.5C 0.582115,319.246 2.24878,317.412 4.5,316C 18.6993,315.192 32.866,315.359 47,316.5C 48.6624,318.771 50.3291,321.104 52,323.5C 54.4075,329.58 56.0741,335.913 57,342.5C 59.006,336.158 61.1727,329.824 63.5,323.5C 64.7322,320.924 66.2322,318.59 68,316.5C 81.4671,315.36 94.9671,315.193 108.5,316C 110.812,317.314 112.812,318.981 114.5,321C 116.612,328.337 119.112,335.503 122,342.5C 124.822,335.32 126.655,327.82 127.5,320C 128.333,318.5 129.5,317.333 131,316.5C 153.469,315.349 175.969,315.182 198.5,316C 202.617,316.806 205.784,318.973 208,322.5C 208.324,329.115 209.658,335.449 212,341.5C 213,339.833 214,338.167 215,336.5C 215.864,330.907 217.531,325.574 220,320.5C 222.08,318.877 224.246,317.377 226.5,316C 238.167,315.333 249.833,315.333 261.5,316C 265.131,317.364 268.131,319.531 270.5,322.5C 272.747,330.129 274.914,337.795 277,345.5C 278.555,336.724 280.555,328.057 283,319.5C 285.116,318.257 287.282,317.091 289.5,316C 311.833,315.333 334.167,315.333 356.5,316C 359.476,318.213 361.642,321.047 363,324.5C 363.716,330.51 365.383,336.176 368,341.5C 370.518,333.748 373.185,326.081 376,318.5C 376.903,317.299 378.069,316.465 379.5,316C 393.033,315.193 406.533,315.36 420,316.5C 421.5,317.333 422.667,318.5 423.5,320C 427.016,327.931 429.849,336.098 432,344.5C 433.746,335.675 436.079,327.009 439,318.5C 439.903,317.299 441.069,316.465 442.5,316C 456.167,315.333 469.833,315.333 483.5,316C 484.931,316.465 486.097,317.299 487,318.5C 489.122,326.257 488.788,333.923 486,341.5C 476.382,368.649 466.548,395.649 456.5,422.5C 454.954,423.684 453.287,424.684 451.5,425.5C 438.5,426.833 425.5,426.833 412.5,425.5C 409.568,424.27 407.568,422.103 406.5,419C 403.689,411.359 401.522,403.525 400,395.5C 397.096,405.14 393.929,414.64 390.5,424C 389.376,424.249 388.376,424.749 387.5,425.5C 373.833,426.833 360.167,426.833 346.5,425.5C 345.672,424.585 344.672,423.919 343.5,423.5C 342.391,420.57 341.058,417.736 339.5,415C 334.267,398.974 328.6,383.14 322.5,367.5C 318.273,377.386 314.106,387.386 310,397.5C 307.588,406.404 304.588,415.071 301,423.5C 299.795,424.071 298.628,424.738 297.5,425.5C 284.513,426.666 271.513,426.833 258.5,426C 255.333,424.833 253.167,422.667 252,419.5C 249.421,411.556 247.087,403.556 245,395.5C 242.676,403.456 240.343,411.456 238,419.5C 236.476,422.236 234.309,424.236 231.5,425.5C 218.5,426.833 205.5,426.833 192.5,425.5C 188.951,423.104 186.451,419.771 185,415.5C 178.502,398.73 172.502,381.73 167,364.5C 161.518,380.743 156.185,397.076 151,413.5C 149.302,418.854 146.136,423.021 141.5,426C 128.5,426.667 115.5,426.667 102.5,426C 100,424.833 98.1667,423 97,420.5C 94.5786,413.244 92.412,405.911 90.5,398.5C 89.1476,399.518 88.1476,400.851 87.5,402.5C 86.4273,409.46 84.4273,416.127 81.5,422.5C 79.8333,423.667 78.1667,424.833 76.5,426C 63.1542,426.833 49.8208,426.666 36.5,425.5C 33.3662,424.017 31.3662,421.517 30.5,418C 26.3296,404.589 21.9962,391.256 17.5,378C 14.6474,371.419 11.8141,364.919 9,358.5C 8,353.833 7,349.167 6,344.5C 3.97786,340.013 1.81119,335.68 -0.5,331.5 Z"/></g>
<g><path style="opacity:1" fill="#fefefe" d="M 9.5,324.5 C 20.5,324.5 31.5,324.5 42.5,324.5C 47.0324,342.435 51.3657,360.435 55.5,378.5C 56.9865,375.023 58.6532,371.523 60.5,368C 64.2217,356.12 67.8884,344.286 71.5,332.5C 72.2692,329.885 72.6025,327.219 72.5,324.5C 83.5233,324.316 94.5233,324.649 105.5,325.5C 110.271,339.862 115.105,354.195 120,368.5C 120.936,372.114 121.436,375.78 121.5,379.5C 122.5,379.5 123.5,379.5 124.5,379.5C 128.65,361.228 132.65,342.895 136.5,324.5C 157.179,324.311 177.846,324.644 198.5,325.5C 198.337,327.857 198.503,330.19 199,332.5C 203.082,346.742 206.748,361.075 210,375.5C 211.011,376.337 212.178,376.67 213.5,376.5C 213.443,374.116 213.777,371.782 214.5,369.5C 219.491,354.848 224.158,340.181 228.5,325.5C 239.498,324.203 250.498,324.203 261.5,325.5C 265.948,343.038 271.281,360.371 277.5,377.5C 278.167,376.833 278.833,376.167 279.5,375.5C 280.455,370.727 281.788,366.06 283.5,361.5C 286.293,349.534 288.96,337.534 291.5,325.5C 311.817,324.601 332.151,324.268 352.5,324.5C 356.707,342.995 361.374,361.328 366.5,379.5C 372.54,361.373 378.207,343.039 383.5,324.5C 394.156,325.099 404.823,325.433 415.5,325.5C 419.91,341.305 424.91,356.972 430.5,372.5C 431.34,374.261 432.34,375.927 433.5,377.5C 438.486,359.919 443.153,342.252 447.5,324.5C 458.527,324.287 469.527,324.62 480.5,325.5C 469.279,355.949 458.612,386.616 448.5,417.5C 437.645,418.111 426.978,417.445 416.5,415.5C 411.377,400.295 406.543,384.961 402,369.5C 400.333,364.167 398.667,364.167 397,369.5C 392.235,385.381 387.735,401.381 383.5,417.5C 372.813,417.832 362.146,417.499 351.5,416.5C 341.783,390.845 332.783,365.012 324.5,339C 323.991,337.831 323.158,336.998 322,336.5C 314.916,355.926 307.749,375.259 300.5,394.5C 297.962,402.114 295.628,409.781 293.5,417.5C 282.833,417.5 272.167,417.5 261.5,417.5C 256.653,400.444 251.653,383.444 246.5,366.5C 245.325,366.281 244.325,366.614 243.5,367.5C 242.764,369.541 241.931,371.541 241,373.5C 236.533,388.095 232.367,402.761 228.5,417.5C 217.813,417.832 207.146,417.499 196.5,416.5C 186.456,390.393 177.123,364.06 168.5,337.5C 167.5,337.5 166.5,337.5 165.5,337.5C 156.785,363.931 147.785,390.264 138.5,416.5C 127.854,417.499 117.187,417.832 106.5,417.5C 101.638,400.398 96.3051,383.398 90.5,366.5C 88.8333,366.833 87.8333,367.833 87.5,369.5C 82.6582,385.195 77.6582,400.862 72.5,416.5C 61.8541,417.499 51.1874,417.832 40.5,417.5C 37.4912,407.135 34.3245,396.801 31,386.5C 23.0187,366.051 15.852,345.384 9.5,324.5 Z"/></g>
</svg>
